<svg width="119" height="32" fill="none"
  xmlns="http://www.w3.org/2000/svg">
  <mask id="a" maskUnits="userSpaceOnUse" x="0" y="2" width="119" height="30">
    <path fill-rule="evenodd" clip-rule="evenodd" d="M0 2.629h118.325v29.37H0V2.63z" fill="#fff"/>
  </mask>
  <g mask="url(#a)">
    <path fill-rule="evenodd" clip-rule="evenodd" d="M87.514 7.84a1.02 1.02 0 01-.277.646c-.23.243-17.371 18.077-17.388 18.096 5.115.885 10.626.576 15.578-.937l.054-.017a.653.653 0 01.815.439l1.035 3.421a.66.66 0 01-.417.818l-.014.005c-3.583 1.102-7.44 1.66-11.235 1.66-2.061 0-4.221-.165-6.234-.492-1.214-.202-5.114-.92-5.62-1.907a1.299 1.299 0 01-.07-.23c-.208-1.042-.184-2.402.08-3.282.073-.247.209-.47.387-.656L80.918 8.02c-4.905-.849-10.414-.591-15.189.774a.652.652 0 01-.803-.442L63.891 4.93a.661.661 0 01.446-.828c3.39-.977 7.311-1.472 10.88-1.472 4.126 0 7.39.52 10.902 1.595.463.142.79.459.946.89.292.807.496 1.894.45 2.727zM14.52 26.977c-5.26 0-9.54-4.317-9.54-9.624s4.28-9.625 9.54-9.625c5.26 0 9.54 4.318 9.54 9.625s-4.28 9.624-9.54 9.624zm0-24.272C6.514 2.704 0 9.274 0 17.352 0 25.429 6.514 32 14.52 32s14.52-6.571 14.52-14.648S22.526 2.704 14.52 2.704zm98.742 12.335c-1.032-4.241-4.83-7.397-9.347-7.397-4.518 0-8.316 3.156-9.348 7.397h18.695zm5.016.242c.423 2.892-2.066 4.414-3.919 4.414H94.574c1.042 4.226 4.834 7.368 9.341 7.368 2.452 0 4.748-.91 6.53-2.576a.648.648 0 01.894.006l2.591 2.493a.665.665 0 01-.001.956 14.297 14.297 0 01-10.014 4.046c-8.967 0-16.06-8.249-14.214-17.62 1.021-5.021 4.587-9.106 9.279-10.823 9.342-3.144 18.021 3.018 19.298 11.736zM37.585 31.238h-3.808a.657.657 0 01-.653-.66V15.746c0-7.328 5.744-13.069 13.075-13.069 3.551 0 6.858 1.34 9.313 3.774 2.427 2.406 3.763 5.599 3.763 8.99v15.137c0 .364-.292.66-.653.66h-3.808a.657.657 0 01-.654-.66V15.441c0-1.996-.793-3.882-2.233-5.31C50.434 8.652 48.4 7.838 46.2 7.838c-2.207 0-4.234.822-5.709 2.314-1.452 1.47-2.252 3.457-2.252 5.595v14.832c0 .365-.293.66-.654.66z" fill="#fff"/>
  </g>
  <path fill-rule="evenodd" clip-rule="evenodd" d="M12.143 17.958L3.502 2.806a.655.655 0 01.238-.89L6.896.085a.645.645 0 01.884.241L16.42 15.48a.655.655 0 01-.238.891L13.027 18.2a.645.645 0 01-.884-.24z" fill="#67D2DF"/>
</svg>